<?xml version="1.0" encoding="utf-8"?>
<svg fill="#000000" height="800px" width="800px" version="1.1" id="Layer_1" viewBox="0 0 512 512" xmlns="http://www.w3.org/2000/svg">
  <g>
    <g>
      <path d="M 0 256 C 0 114.842 114.842 0 256 0 C 260.359 0 264.694 0.11 269 0.326 L 269 269 L 0.326 269 C 0.11 264.694 0 260.359 0 256 Z M 67.21 124.718 L 147.903 124.718 C 152.639 108.964 158.309 92.592 164.867 78.375 C 173.453 59.758 183.391 45.372 194.27 34.43 C 142.101 49 97.373 81.395 67.21 124.718 Z M 26.607 242.871 L 130.993 242.871 C 131.731 211.364 135.29 179.856 141.401 150.974 L 51.43 150.974 C 37.15 179.856 28.398 210.051 26.607 242.871 Z M 242.872 150.975 L 168.26 150.975 C 161.799 179.857 158.035 211.364 157.259 242.872 L 242.872 242.872 Z M 242.872 28.372 C 223.179 34.912 203.845 56.214 188.492 89.502 C 183.434 100.468 179.158 112.903 175.26 124.718 L 242.872 124.718 Z"/>
    </g>
  </g>
</svg>