<?xml version="1.0" encoding="utf-8"?>
<svg fill="#000000" height="800px" width="800px" version="1.1" id="Layer_1" viewBox="0 0 512 512" xmlns="http://www.w3.org/2000/svg">
  <g>
    <g>
      <path d="M 512 256 C 512 397.158 397.158 512 256 512 C 114.842 512 0 397.158 0 256 C 0 114.842 114.842 0 256 0 C 260.359 0 264.694 0.11 269 0.326 L 269 243 L 511.674 243 C 511.89 247.307 512 251.641 512 256 Z M 67.21 124.718 L 147.903 124.718 C 152.639 108.964 158.309 92.592 164.867 78.375 C 173.453 59.758 183.391 45.372 194.27 34.43 C 142.101 49 97.373 81.395 67.21 124.718 Z M 26.607 242.871 L 130.993 242.871 C 131.731 211.364 135.29 179.856 141.401 150.974 L 51.43 150.974 C 37.15 179.856 28.398 210.051 26.607 242.871 Z M 51.98 361.025 L 141.623 361.025 C 135.441 333.456 131.823 301.948 131.023 269.128 L 26.673 269.128 C 28.614 303.262 37.534 333.456 51.98 361.025 Z M 193.801 476.792 C 183.071 465.622 173.278 451.213 164.865 432.975 C 158.444 419.054 152.875 404.349 148.199 387.282 L 67.933 387.282 C 97.995 430.605 142.251 462.276 193.801 476.792 Z M 242.872 387.282 L 175.407 387.282 C 191.865 441.108 217.928 474.978 242.872 483.601 Z M 242.871 361.026 L 242.871 269.129 L 157.278 269.129 C 158.126 303.262 162.104 334.77 168.34 361.026 Z M 242.872 150.975 L 168.26 150.975 C 161.799 179.857 158.035 211.364 157.259 242.872 L 242.872 242.872 Z M 242.872 28.372 C 223.179 34.912 203.845 56.214 188.492 89.502 C 183.434 100.468 179.158 112.903 175.26 124.718 L 242.872 124.718 Z M 269.128 361.025 L 343.659 361.025 C 349.895 334.769 353.873 303.261 354.721 269.128 L 269.128 269.128 Z M 336.593 387.282 L 269.128 387.282 L 269.128 483.316 C 295.385 474.221 320.319 439.795 336.593 387.282 Z M 444.066 387.282 L 363.8 387.282 C 359.124 404.349 353.555 418.924 347.134 432.845 C 338.822 450.866 329.601 465.408 319.588 476.525 C 370.545 461.827 414.275 430.605 444.066 387.282 Z M 485.328 269.129 L 380.978 269.129 C 380.178 301.949 376.559 333.457 370.378 361.026 L 460.02 361.026 C 474.466 333.456 483.386 303.262 485.328 269.129 Z"/>
    </g>
  </g>
</svg>